<?xml version="1.0" encoding="UTF-8"?>
<svg xmlns="http://www.w3.org/2000/svg" xmlns:xlink="http://www.w3.org/1999/xlink" width="225px" height="105px" viewBox="0 0 225 105" version="1.1">
<g id="surface1">
<path style=" stroke:none;fill-rule:nonzero;fill:rgb(25.490196%,27.058824%,29.411765%);fill-opacity:1;" d="M 111.078125 81.726562 L 105.726562 81.726562 L 105.726562 73.484375 L 111.078125 73.484375 C 113.585938 73.539062 115.320312 75.101562 115.320312 77.578125 C 115.320312 80.109375 113.585938 81.726562 111.078125 81.726562 Z M 111.800781 67.394531 L 99.359375 67.394531 L 99.359375 96.542969 L 105.726562 96.542969 L 105.726562 88.191406 L 111.753906 88.191406 C 118.453125 88.191406 121.683594 82.964844 121.683594 77.578125 C 121.683594 72.246094 118.453125 67.394531 111.800781 67.394531 Z M 111.800781 67.394531 "/>
<path style=" stroke:none;fill-rule:nonzero;fill:rgb(25.490196%,27.058824%,29.411765%);fill-opacity:1;" d="M 171.6875 85.121094 L 159.824219 67.234375 L 153.460938 67.234375 L 153.460938 96.542969 L 159.824219 96.542969 L 159.824219 78.601562 L 171.6875 96.542969 L 178.050781 96.542969 L 178.050781 67.234375 L 171.6875 67.234375 Z M 171.6875 85.121094 "/>
<path style=" stroke:none;fill-rule:nonzero;fill:rgb(25.490196%,27.058824%,29.411765%);fill-opacity:1;" d="M 102.496094 58.507812 L 102.496094 55.707031 L 105.195312 55.707031 C 106.402344 55.707031 107.074219 56.082031 107.074219 57.105469 C 107.074219 58.023438 106.449219 58.507812 105.195312 58.507812 Z M 102.496094 50.046875 L 104.953125 50.046875 C 106.160156 50.046875 106.738281 50.535156 106.738281 51.503906 C 106.738281 52.632812 106.304688 53.066406 104.953125 53.066406 L 102.496094 53.066406 Z M 110.402344 57.320312 C 110.402344 55.757812 109.726562 54.519531 108.472656 53.820312 C 108.761719 53.550781 109.679688 52.527344 109.679688 51.074219 C 109.679688 48.753906 108.523438 47.085938 104.761719 47.085938 L 99.359375 47.085938 L 99.359375 61.523438 L 105.53125 61.523438 C 109.050781 61.523438 110.402344 59.636719 110.402344 57.320312 Z M 110.402344 57.320312 "/>
<path style=" stroke:none;fill-rule:nonzero;fill:rgb(25.490196%,27.058824%,29.411765%);fill-opacity:1;" d="M 135.863281 52.6875 L 142.371094 61.523438 L 145.503906 61.523438 L 145.503906 47.085938 L 142.371094 47.085938 L 142.371094 55.867188 L 135.863281 47.085938 L 132.726562 47.085938 L 132.726562 61.523438 L 135.863281 61.523438 Z M 135.863281 52.6875 "/>
<path style=" stroke:none;fill-rule:nonzero;fill:rgb(25.490196%,27.058824%,29.411765%);fill-opacity:1;" d="M 161.996094 58.832031 L 159.34375 56.78125 C 158.714844 57.644531 157.753906 58.183594 156.691406 58.183594 C 154.761719 58.183594 153.21875 56.460938 153.21875 54.304688 C 153.21875 52.148438 154.761719 50.425781 156.691406 50.425781 C 157.753906 50.425781 158.714844 50.964844 159.34375 51.828125 L 161.996094 49.78125 C 160.789062 48 158.859375 46.871094 156.691406 46.871094 C 152.980469 46.871094 149.988281 50.210938 149.988281 54.304688 C 149.988281 58.453125 152.980469 61.738281 156.691406 61.738281 C 158.859375 61.738281 160.789062 60.609375 161.996094 58.832031 Z M 161.996094 58.832031 "/>
<path style=" stroke:none;fill-rule:nonzero;fill:rgb(25.490196%,27.058824%,29.411765%);fill-opacity:1;" d="M 172.410156 50.425781 C 174.339844 50.425781 175.882812 52.148438 175.882812 54.304688 C 175.882812 56.460938 174.339844 58.183594 172.410156 58.183594 C 170.480469 58.183594 168.9375 56.460938 168.9375 54.304688 C 168.9375 52.148438 170.480469 50.425781 172.410156 50.425781 Z M 172.410156 61.738281 C 176.074219 61.738281 179.0625 58.398438 179.0625 54.304688 C 179.0625 50.15625 176.074219 46.816406 172.410156 46.816406 C 168.699219 46.816406 165.707031 50.15625 165.707031 54.304688 C 165.707031 58.398438 168.699219 61.738281 172.410156 61.738281 Z M 172.410156 61.738281 "/>
<path style=" stroke:none;fill-rule:nonzero;fill:rgb(25.490196%,27.058824%,29.411765%);fill-opacity:1;" d="M 121.203125 51.019531 L 123.035156 55.8125 C 122.410156 55.921875 121.832031 55.976562 121.203125 55.976562 C 120.578125 55.976562 119.996094 55.921875 119.417969 55.8125 Z M 118.261719 58.832031 C 119.226562 59.046875 120.191406 59.152344 121.203125 59.152344 C 122.070312 59.152344 122.988281 59.046875 123.855469 58.882812 C 123.953125 58.882812 124.046875 58.832031 124.144531 58.832031 L 125.15625 61.523438 L 128.484375 61.523438 L 122.9375 47.085938 L 119.46875 47.085938 L 113.875 61.523438 L 117.25 61.523438 Z M 118.261719 58.832031 "/>
<path style=" stroke:none;fill-rule:nonzero;fill:rgb(25.490196%,27.058824%,29.411765%);fill-opacity:1;" d="M 134.464844 85.496094 C 133.257812 85.496094 132.003906 85.390625 130.796875 85.175781 L 134.511719 75.371094 L 138.175781 85.175781 C 136.96875 85.390625 135.714844 85.496094 134.464844 85.496094 Z M 130.941406 67.394531 L 119.804688 96.542969 L 126.457031 96.542969 L 128.53125 91.101562 C 130.460938 91.585938 132.484375 91.800781 134.464844 91.800781 C 136.296875 91.800781 138.078125 91.585938 139.816406 91.261719 C 140.007812 91.207031 140.25 91.15625 140.441406 91.101562 L 142.46875 96.542969 L 149.167969 96.542969 L 137.984375 67.394531 Z M 130.941406 67.394531 "/>
<path style=" stroke:none;fill-rule:nonzero;fill:rgb(25.490196%,27.058824%,29.411765%);fill-opacity:1;" d="M 64.355469 73 C 60.0625 73 56.640625 69.121094 56.640625 64.378906 C 56.640625 59.585938 60.0625 55.757812 64.355469 55.757812 C 68.597656 55.757812 72.019531 59.585938 72.019531 64.378906 C 72.019531 69.121094 68.597656 73 64.355469 73 Z M 64.355469 43.316406 C 53.941406 43.316406 45.5 52.742188 45.5 64.378906 L 45.5 96.542969 L 56.640625 96.542969 L 56.640625 83.558594 L 57.507812 83.933594 C 59.675781 84.90625 61.992188 85.390625 64.355469 85.390625 C 74.722656 85.390625 83.160156 75.960938 83.160156 64.378906 C 83.160156 52.742188 74.722656 43.316406 64.355469 43.316406 Z M 64.355469 43.316406 "/>
<path style=" stroke:none;fill-rule:nonzero;fill:rgb(6.666667%,72.54902%,90.196078%);fill-opacity:1;" d="M 45.5 38.734375 L 56.640625 38.734375 L 56.640625 26.34375 L 45.5 26.34375 Z M 45.5 38.734375 "/>
<path style=" stroke:none;fill-rule:nonzero;fill:rgb(25.490196%,27.058824%,29.411765%);fill-opacity:1;" d="M 47.285156 10.289062 C 47.429688 10.128906 47.574219 10.019531 47.769531 9.914062 C 47.960938 9.859375 48.152344 9.804688 48.347656 9.804688 C 48.636719 9.804688 48.828125 9.859375 49.070312 10.019531 C 49.261719 10.128906 49.457031 10.289062 49.648438 10.503906 L 50.613281 9.535156 C 50.324219 9.160156 49.984375 8.890625 49.601562 8.726562 C 49.3125 8.566406 48.925781 8.457031 48.539062 8.40625 L 48.058594 8.40625 C 47.71875 8.457031 47.429688 8.511719 47.140625 8.621094 C 46.753906 8.78125 46.464844 8.996094 46.175781 9.265625 C 45.9375 9.535156 45.742188 9.859375 45.550781 10.289062 C 45.40625 10.667969 45.355469 11.042969 45.355469 11.527344 C 45.355469 11.960938 45.40625 12.390625 45.550781 12.769531 C 45.742188 13.144531 45.9375 13.46875 46.175781 13.738281 C 46.464844 14.0625 46.753906 14.277344 47.140625 14.382812 C 47.480469 14.546875 47.863281 14.652344 48.296875 14.652344 C 48.78125 14.652344 49.214844 14.546875 49.601562 14.332031 C 49.984375 14.167969 50.324219 13.84375 50.613281 13.46875 L 49.648438 12.5 C 49.457031 12.769531 49.261719 12.929688 49.070312 13.039062 C 48.828125 13.144531 48.636719 13.253906 48.347656 13.253906 C 48.152344 13.253906 47.960938 13.199219 47.769531 13.089844 C 47.574219 13.039062 47.429688 12.929688 47.285156 12.769531 C 47.140625 12.605469 47.042969 12.445312 46.996094 12.230469 C 46.898438 12.015625 46.898438 11.796875 46.898438 11.527344 C 46.898438 11.257812 46.898438 11.042969 46.996094 10.828125 C 47.042969 10.613281 47.140625 10.453125 47.285156 10.289062 Z M 47.285156 10.289062 "/>
<path style=" stroke:none;fill-rule:nonzero;fill:rgb(25.490196%,27.058824%,29.411765%);fill-opacity:1;" d="M 55.097656 12.230469 C 55.050781 12.445312 54.902344 12.605469 54.808594 12.769531 C 54.664062 12.929688 54.519531 13.039062 54.324219 13.089844 C 54.179688 13.199219 53.988281 13.253906 53.746094 13.253906 C 53.554688 13.253906 53.359375 13.199219 53.214844 13.089844 C 53.023438 13.039062 52.878906 12.929688 52.734375 12.769531 C 52.589844 12.605469 52.492188 12.445312 52.445312 12.230469 C 52.347656 12.015625 52.300781 11.796875 52.300781 11.527344 C 52.300781 11.257812 52.347656 11.042969 52.445312 10.828125 C 52.492188 10.613281 52.589844 10.453125 52.734375 10.289062 C 52.878906 10.128906 53.023438 10.019531 53.214844 9.914062 C 53.359375 9.859375 53.554688 9.804688 53.746094 9.804688 C 53.988281 9.804688 54.179688 9.859375 54.324219 9.914062 C 54.519531 10.019531 54.664062 10.128906 54.808594 10.289062 C 54.902344 10.453125 55.050781 10.613281 55.097656 10.828125 C 55.195312 11.042969 55.195312 11.257812 55.195312 11.527344 C 55.195312 11.796875 55.195312 12.015625 55.097656 12.230469 Z M 54.035156 8.40625 L 53.507812 8.40625 C 53.167969 8.457031 52.878906 8.511719 52.589844 8.621094 C 52.203125 8.78125 51.914062 8.996094 51.625 9.320312 C 51.382812 9.589844 51.191406 9.914062 51 10.289062 C 50.855469 10.667969 50.804688 11.042969 50.804688 11.527344 C 50.804688 11.960938 50.855469 12.390625 51 12.769531 C 51.191406 13.144531 51.382812 13.46875 51.625 13.738281 C 51.914062 14.007812 52.203125 14.222656 52.589844 14.382812 C 52.925781 14.546875 53.359375 14.652344 53.746094 14.652344 C 54.179688 14.652344 54.566406 14.546875 54.953125 14.382812 C 55.289062 14.222656 55.628906 14.007812 55.917969 13.738281 C 56.15625 13.46875 56.351562 13.144531 56.496094 12.769531 C 56.6875 12.390625 56.738281 11.960938 56.738281 11.527344 C 56.738281 11.042969 56.640625 10.667969 56.496094 10.289062 C 56.351562 9.914062 56.15625 9.589844 55.867188 9.320312 C 55.628906 8.996094 55.289062 8.78125 54.953125 8.621094 C 54.664062 8.511719 54.375 8.457031 54.035156 8.40625 Z M 54.035156 8.40625 "/>
<path style=" stroke:none;fill-rule:nonzero;fill:rgb(25.490196%,27.058824%,29.411765%);fill-opacity:1;" d="M 60.496094 10.074219 C 60.691406 10.234375 60.738281 10.453125 60.738281 10.722656 C 60.738281 10.992188 60.691406 11.207031 60.496094 11.367188 C 60.351562 11.527344 60.113281 11.636719 59.824219 11.636719 L 58.953125 11.636719 L 58.953125 9.859375 L 59.824219 9.859375 C 60.113281 9.859375 60.351562 9.964844 60.496094 10.074219 Z M 61.992188 11.90625 C 62.183594 11.582031 62.28125 11.207031 62.28125 10.722656 C 62.28125 10.289062 62.183594 9.914062 61.992188 9.589844 C 61.800781 9.210938 61.511719 8.996094 61.171875 8.78125 C 60.835938 8.621094 60.402344 8.511719 59.917969 8.511719 L 57.460938 8.511719 L 57.460938 14.492188 L 58.953125 14.492188 L 58.953125 12.929688 L 59.773438 12.929688 L 60.738281 14.492188 L 62.378906 14.492188 L 61.21875 12.605469 C 61.558594 12.445312 61.800781 12.230469 61.992188 11.90625 Z M 61.992188 11.90625 "/>
<path style=" stroke:none;fill-rule:nonzero;fill:rgb(25.490196%,27.058824%,29.411765%);fill-opacity:1;" d="M 66.089844 10.074219 C 66.234375 10.234375 66.332031 10.453125 66.332031 10.722656 C 66.332031 10.992188 66.234375 11.207031 66.089844 11.367188 C 65.945312 11.527344 65.703125 11.636719 65.367188 11.636719 L 64.546875 11.636719 L 64.546875 9.859375 L 65.367188 9.859375 C 65.703125 9.859375 65.945312 9.964844 66.089844 10.074219 Z M 67.585938 11.90625 C 67.777344 11.582031 67.828125 11.207031 67.828125 10.722656 C 67.828125 10.289062 67.777344 9.914062 67.585938 9.589844 C 67.390625 9.210938 67.101562 8.996094 66.765625 8.78125 C 66.378906 8.621094 65.945312 8.511719 65.464844 8.511719 L 63.054688 8.511719 L 63.054688 14.492188 L 64.546875 14.492188 L 64.546875 12.929688 L 65.367188 12.929688 L 66.332031 14.492188 L 67.972656 14.492188 L 66.8125 12.605469 C 67.152344 12.445312 67.390625 12.230469 67.585938 11.90625 Z M 67.585938 11.90625 "/>
<path style=" stroke:none;fill-rule:nonzero;fill:rgb(25.490196%,27.058824%,29.411765%);fill-opacity:1;" d="M 70.09375 12.121094 L 72.457031 12.121094 L 72.457031 10.828125 L 70.09375 10.828125 L 70.09375 9.859375 L 72.792969 9.859375 L 72.792969 8.511719 L 68.597656 8.511719 L 68.597656 14.492188 L 72.890625 14.492188 L 72.890625 13.199219 L 70.09375 13.199219 Z M 70.09375 12.121094 "/>
<path style=" stroke:none;fill-rule:nonzero;fill:rgb(25.490196%,27.058824%,29.411765%);fill-opacity:1;" d="M 77.324219 11.421875 C 77.132812 11.257812 76.941406 11.207031 76.699219 11.097656 C 76.503906 11.042969 76.265625 10.992188 76.070312 10.9375 C 75.878906 10.882812 75.636719 10.828125 75.492188 10.773438 C 75.300781 10.722656 75.15625 10.667969 75.058594 10.558594 C 74.914062 10.503906 74.867188 10.398438 74.867188 10.234375 C 74.867188 10.183594 74.914062 10.074219 74.960938 10.019531 C 75.011719 9.914062 75.105469 9.859375 75.253906 9.804688 C 75.347656 9.75 75.542969 9.75 75.734375 9.75 C 75.976562 9.75 76.214844 9.75 76.457031 9.859375 C 76.699219 9.914062 76.988281 10.019531 77.230469 10.183594 L 77.664062 8.941406 C 77.421875 8.78125 77.132812 8.621094 76.796875 8.566406 C 76.554688 8.457031 76.265625 8.457031 76.023438 8.40625 L 75.445312 8.40625 C 75.058594 8.457031 74.722656 8.511719 74.433594 8.671875 C 74.09375 8.835938 73.804688 9.105469 73.660156 9.375 C 73.46875 9.644531 73.371094 9.964844 73.371094 10.34375 C 73.371094 10.667969 73.417969 10.9375 73.5625 11.152344 C 73.660156 11.367188 73.804688 11.527344 74 11.636719 C 74.144531 11.796875 74.335938 11.90625 74.578125 11.960938 C 74.816406 12.066406 75.011719 12.121094 75.203125 12.175781 C 75.445312 12.230469 75.636719 12.285156 75.832031 12.335938 C 75.976562 12.390625 76.121094 12.445312 76.265625 12.5 C 76.359375 12.605469 76.410156 12.714844 76.410156 12.820312 C 76.410156 12.929688 76.410156 12.984375 76.3125 13.089844 C 76.265625 13.144531 76.167969 13.199219 76.070312 13.253906 C 75.925781 13.308594 75.78125 13.308594 75.542969 13.308594 C 75.253906 13.308594 74.914062 13.253906 74.625 13.144531 C 74.289062 13.039062 74.046875 12.875 73.804688 12.714844 L 73.273438 13.953125 C 73.515625 14.167969 73.855469 14.332031 74.289062 14.4375 C 74.671875 14.546875 75.105469 14.652344 75.542969 14.652344 C 76.070312 14.652344 76.503906 14.546875 76.84375 14.382812 C 77.230469 14.167969 77.46875 13.953125 77.664062 13.683594 C 77.808594 13.359375 77.902344 13.039062 77.902344 12.714844 C 77.902344 12.390625 77.855469 12.121094 77.757812 11.90625 C 77.613281 11.691406 77.46875 11.527344 77.324219 11.421875 Z M 77.324219 11.421875 "/>
<path style=" stroke:none;fill-rule:nonzero;fill:rgb(25.490196%,27.058824%,29.411765%);fill-opacity:1;" d="M 81.570312 11.367188 C 81.421875 11.527344 81.183594 11.582031 80.894531 11.582031 L 80.027344 11.582031 L 80.027344 9.859375 L 80.894531 9.859375 C 81.183594 9.859375 81.421875 9.964844 81.570312 10.074219 C 81.761719 10.234375 81.808594 10.453125 81.808594 10.722656 C 81.808594 10.992188 81.761719 11.207031 81.570312 11.367188 Z M 82.242188 8.78125 C 81.859375 8.621094 81.472656 8.511719 80.988281 8.511719 L 78.53125 8.511719 L 78.53125 14.492188 L 80.027344 14.492188 L 80.027344 12.929688 L 80.988281 12.929688 C 81.472656 12.929688 81.859375 12.875 82.242188 12.660156 C 82.582031 12.5 82.871094 12.230469 83.0625 11.90625 C 83.257812 11.582031 83.351562 11.207031 83.351562 10.722656 C 83.351562 10.289062 83.257812 9.914062 83.0625 9.589844 C 82.871094 9.210938 82.582031 8.996094 82.242188 8.78125 Z M 82.242188 8.78125 "/>
<path style=" stroke:none;fill-rule:nonzero;fill:rgb(25.490196%,27.058824%,29.411765%);fill-opacity:1;" d="M 88.125 12.230469 C 88.03125 12.445312 87.933594 12.605469 87.789062 12.769531 C 87.691406 12.929688 87.5 13.039062 87.355469 13.089844 C 87.160156 13.199219 86.96875 13.253906 86.777344 13.253906 C 86.582031 13.253906 86.390625 13.199219 86.199219 13.089844 C 86.050781 13.039062 85.859375 12.929688 85.761719 12.769531 C 85.617188 12.605469 85.523438 12.445312 85.425781 12.230469 C 85.378906 12.015625 85.328125 11.796875 85.328125 11.527344 C 85.328125 11.257812 85.378906 11.042969 85.425781 10.828125 C 85.523438 10.613281 85.617188 10.453125 85.761719 10.289062 C 85.859375 10.128906 86.050781 10.019531 86.199219 9.914062 C 86.390625 9.859375 86.582031 9.804688 86.777344 9.804688 C 86.96875 9.804688 87.160156 9.859375 87.355469 9.914062 C 87.5 10.019531 87.691406 10.128906 87.789062 10.289062 C 87.933594 10.453125 88.03125 10.613281 88.125 10.828125 C 88.175781 11.042969 88.222656 11.257812 88.222656 11.527344 C 88.222656 11.796875 88.175781 12.015625 88.125 12.230469 Z M 87.015625 8.40625 L 86.535156 8.40625 C 86.199219 8.457031 85.859375 8.511719 85.570312 8.621094 C 85.234375 8.78125 84.894531 8.996094 84.65625 9.320312 C 84.363281 9.589844 84.171875 9.914062 84.027344 10.289062 C 83.882812 10.667969 83.785156 11.042969 83.785156 11.527344 C 83.785156 11.960938 83.882812 12.390625 84.027344 12.769531 C 84.171875 13.144531 84.363281 13.46875 84.65625 13.738281 C 84.894531 14.007812 85.234375 14.222656 85.617188 14.382812 C 85.957031 14.546875 86.34375 14.652344 86.777344 14.652344 C 87.210938 14.652344 87.59375 14.546875 87.980469 14.382812 C 88.320312 14.222656 88.65625 14.007812 88.898438 13.738281 C 89.1875 13.46875 89.378906 13.144531 89.523438 12.769531 C 89.667969 12.390625 89.765625 11.960938 89.765625 11.527344 C 89.765625 11.042969 89.667969 10.667969 89.523438 10.289062 C 89.378906 9.914062 89.136719 9.589844 88.898438 9.320312 C 88.65625 8.996094 88.320312 8.78125 87.980469 8.621094 C 87.691406 8.511719 87.355469 8.457031 87.015625 8.40625 Z M 87.015625 8.40625 "/>
<path style=" stroke:none;fill-rule:nonzero;fill:rgb(25.490196%,27.058824%,29.411765%);fill-opacity:1;" d="M 94.058594 11.691406 L 91.695312 8.511719 L 90.488281 8.511719 L 90.488281 14.492188 L 91.933594 14.492188 L 91.933594 11.3125 L 94.296875 14.492188 L 95.550781 14.492188 L 95.550781 8.511719 L 94.058594 8.511719 Z M 94.058594 11.691406 "/>
<path style=" stroke:none;fill-rule:nonzero;fill:rgb(25.490196%,27.058824%,29.411765%);fill-opacity:1;" d="M 100.324219 12.390625 C 100.230469 12.660156 100.035156 12.820312 99.792969 12.984375 C 99.601562 13.089844 99.3125 13.144531 99.023438 13.144531 L 98.058594 13.144531 L 98.058594 9.859375 L 99.023438 9.859375 C 99.3125 9.859375 99.601562 9.964844 99.792969 10.074219 C 100.035156 10.234375 100.230469 10.398438 100.324219 10.613281 C 100.46875 10.882812 100.519531 11.152344 100.519531 11.527344 C 100.519531 11.851562 100.46875 12.121094 100.324219 12.390625 Z M 100.613281 8.890625 C 100.179688 8.671875 99.648438 8.511719 99.070312 8.511719 L 96.5625 8.511719 L 96.5625 14.492188 L 99.070312 14.492188 C 99.648438 14.492188 100.179688 14.382812 100.613281 14.113281 C 101.097656 13.898438 101.433594 13.578125 101.675781 13.089844 C 101.917969 12.660156 102.0625 12.121094 102.0625 11.527344 C 102.0625 10.882812 101.917969 10.398438 101.675781 9.914062 C 101.433594 9.480469 101.097656 9.160156 100.613281 8.890625 Z M 100.613281 8.890625 "/>
<path style=" stroke:none;fill-rule:nonzero;fill:rgb(25.490196%,27.058824%,29.411765%);fill-opacity:1;" d="M 104.277344 12.121094 L 106.640625 12.121094 L 106.640625 10.828125 L 104.277344 10.828125 L 104.277344 9.859375 L 106.980469 9.859375 L 106.980469 8.511719 L 102.785156 8.511719 L 102.785156 14.492188 L 107.074219 14.492188 L 107.074219 13.199219 L 104.277344 13.199219 Z M 104.277344 12.121094 "/>
<path style=" stroke:none;fill-rule:nonzero;fill:rgb(25.490196%,27.058824%,29.411765%);fill-opacity:1;" d="M 111.414062 11.691406 L 109.101562 8.511719 L 107.847656 8.511719 L 107.847656 14.492188 L 109.292969 14.492188 L 109.292969 11.3125 L 111.65625 14.492188 L 112.910156 14.492188 L 112.910156 8.511719 L 111.414062 8.511719 Z M 111.414062 11.691406 "/>
<path style=" stroke:none;fill-rule:nonzero;fill:rgb(25.490196%,27.058824%,29.411765%);fill-opacity:1;" d="M 113.390625 9.859375 L 115.03125 9.859375 L 115.03125 14.492188 L 116.574219 14.492188 L 116.574219 9.859375 L 118.214844 9.859375 L 118.214844 8.511719 L 113.390625 8.511719 Z M 113.390625 9.859375 "/>
<path style=" stroke:none;fill-rule:nonzero;fill:rgb(25.490196%,27.058824%,29.411765%);fill-opacity:1;" d="M 120.191406 12.121094 L 122.554688 12.121094 L 122.554688 10.828125 L 120.191406 10.828125 L 120.191406 9.859375 L 122.890625 9.859375 L 122.890625 8.511719 L 118.695312 8.511719 L 118.695312 14.492188 L 122.988281 14.492188 L 122.988281 13.199219 L 120.191406 13.199219 Z M 120.191406 12.121094 "/>
<path style=" stroke:none;fill-rule:nonzero;fill:rgb(25.490196%,27.058824%,29.411765%);fill-opacity:1;" d="M 127.664062 12.121094 L 128.339844 10.183594 L 129.015625 12.121094 Z M 127.617188 8.511719 L 125.253906 14.492188 L 126.796875 14.492188 L 127.183594 13.359375 L 129.449219 13.359375 L 129.882812 14.492188 L 131.472656 14.492188 L 129.109375 8.511719 Z M 127.617188 8.511719 "/>
<path style=" stroke:none;fill-rule:nonzero;fill:rgb(25.490196%,27.058824%,29.411765%);fill-opacity:1;" d="M 135.1875 11.796875 C 135.1875 12.285156 135.089844 12.660156 134.898438 12.875 C 134.753906 13.089844 134.511719 13.253906 134.171875 13.253906 C 133.882812 13.253906 133.59375 13.089844 133.449219 12.875 C 133.257812 12.660156 133.160156 12.285156 133.160156 11.796875 L 133.160156 8.511719 L 131.667969 8.511719 L 131.667969 11.851562 C 131.667969 12.714844 131.859375 13.414062 132.339844 13.898438 C 132.777344 14.382812 133.355469 14.652344 134.171875 14.652344 C 134.945312 14.652344 135.570312 14.382812 136.007812 13.898438 C 136.441406 13.414062 136.679688 12.714844 136.679688 11.851562 L 136.679688 8.511719 L 135.1875 8.511719 Z M 135.1875 11.796875 "/>
<path style=" stroke:none;fill-rule:nonzero;fill:rgb(25.490196%,27.058824%,29.411765%);fill-opacity:1;" d="M 137.019531 9.859375 L 138.65625 9.859375 L 138.65625 14.492188 L 140.199219 14.492188 L 140.199219 9.859375 L 141.839844 9.859375 L 141.839844 8.511719 L 137.019531 8.511719 Z M 137.019531 9.859375 "/>
<path style=" stroke:none;fill-rule:nonzero;fill:rgb(25.490196%,27.058824%,29.411765%);fill-opacity:1;" d="M 146.277344 12.230469 C 146.179688 12.445312 146.082031 12.605469 145.9375 12.769531 C 145.84375 12.929688 145.699219 13.039062 145.503906 13.089844 C 145.3125 13.199219 145.117188 13.253906 144.925781 13.253906 C 144.734375 13.253906 144.539062 13.199219 144.347656 13.089844 C 144.203125 13.039062 144.011719 12.929688 143.914062 12.769531 C 143.769531 12.605469 143.671875 12.445312 143.578125 12.230469 C 143.527344 12.015625 143.480469 11.796875 143.480469 11.527344 C 143.480469 11.257812 143.527344 11.042969 143.578125 10.828125 C 143.671875 10.613281 143.769531 10.453125 143.914062 10.289062 C 144.011719 10.128906 144.203125 10.019531 144.347656 9.914062 C 144.539062 9.859375 144.734375 9.804688 144.925781 9.804688 C 145.117188 9.804688 145.3125 9.859375 145.503906 9.914062 C 145.699219 10.019531 145.84375 10.128906 145.9375 10.289062 C 146.082031 10.453125 146.179688 10.613281 146.277344 10.828125 C 146.324219 11.042969 146.371094 11.257812 146.371094 11.527344 C 146.371094 11.796875 146.324219 12.015625 146.277344 12.230469 Z M 145.167969 8.40625 L 144.683594 8.40625 C 144.347656 8.457031 144.058594 8.511719 143.769531 8.621094 C 143.382812 8.78125 143.09375 8.996094 142.804688 9.320312 C 142.5625 9.589844 142.324219 9.914062 142.179688 10.289062 C 142.035156 10.667969 141.984375 11.042969 141.984375 11.527344 C 141.984375 11.960938 142.035156 12.390625 142.179688 12.769531 C 142.324219 13.144531 142.5625 13.46875 142.804688 13.738281 C 143.09375 14.007812 143.382812 14.222656 143.769531 14.382812 C 144.105469 14.546875 144.492188 14.652344 144.925781 14.652344 C 145.359375 14.652344 145.746094 14.546875 146.132812 14.382812 C 146.46875 14.222656 146.808594 14.007812 147.046875 13.738281 C 147.335938 13.46875 147.53125 13.144531 147.675781 12.769531 C 147.820312 12.390625 147.914062 11.960938 147.914062 11.527344 C 147.914062 11.042969 147.820312 10.667969 147.675781 10.289062 C 147.53125 9.914062 147.335938 9.589844 147.046875 9.320312 C 146.808594 8.996094 146.46875 8.78125 146.132812 8.621094 C 145.84375 8.511719 145.503906 8.457031 145.167969 8.40625 Z M 145.167969 8.40625 "/>
<path style=" stroke:none;fill-rule:nonzero;fill:rgb(25.490196%,27.058824%,29.411765%);fill-opacity:1;" d="M 151.675781 10.074219 C 151.820312 10.234375 151.917969 10.453125 151.917969 10.722656 C 151.917969 10.992188 151.820312 11.207031 151.675781 11.367188 C 151.53125 11.527344 151.289062 11.636719 150.953125 11.636719 L 150.132812 11.636719 L 150.132812 9.859375 L 150.953125 9.859375 C 151.289062 9.859375 151.53125 9.964844 151.675781 10.074219 Z M 153.171875 11.90625 C 153.363281 11.582031 153.460938 11.207031 153.460938 10.722656 C 153.460938 10.289062 153.363281 9.914062 153.171875 9.589844 C 152.980469 9.210938 152.6875 8.996094 152.351562 8.78125 C 151.964844 8.621094 151.53125 8.511719 151.050781 8.511719 L 148.640625 8.511719 L 148.640625 14.492188 L 150.132812 14.492188 L 150.132812 12.929688 L 150.953125 12.929688 L 151.917969 14.492188 L 153.558594 14.492188 L 152.398438 12.605469 C 152.738281 12.445312 152.980469 12.230469 153.171875 11.90625 Z M 153.171875 11.90625 "/>
<path style=" stroke:none;fill-rule:nonzero;fill:rgb(25.490196%,27.058824%,29.411765%);fill-opacity:1;" d="M 154.183594 14.492188 L 155.726562 14.492188 L 155.726562 8.511719 L 154.183594 8.511719 Z M 154.183594 14.492188 "/>
<path style=" stroke:none;fill-rule:nonzero;fill:rgb(25.490196%,27.058824%,29.411765%);fill-opacity:1;" d="M 163.585938 12.121094 L 164.261719 10.183594 L 164.9375 12.121094 Z M 163.539062 8.511719 L 161.222656 14.382812 L 161.222656 13.144531 L 158.425781 13.144531 L 161.128906 9.589844 L 161.128906 8.511719 L 156.5 8.511719 L 156.5 9.859375 L 159.152344 9.859375 L 156.449219 13.414062 L 156.449219 14.492188 L 162.71875 14.492188 L 163.152344 13.359375 L 165.417969 13.359375 L 165.804688 14.492188 L 167.394531 14.492188 L 165.03125 8.511719 Z M 163.539062 8.511719 "/>
<path style=" stroke:none;fill-rule:nonzero;fill:rgb(25.490196%,27.058824%,29.411765%);fill-opacity:1;" d="M 171.542969 12.390625 C 171.398438 12.660156 171.253906 12.820312 171.011719 12.984375 C 170.769531 13.089844 170.53125 13.144531 170.191406 13.144531 L 169.277344 13.144531 L 169.277344 9.859375 L 170.191406 9.859375 C 170.53125 9.859375 170.769531 9.964844 171.011719 10.074219 C 171.253906 10.234375 171.398438 10.398438 171.542969 10.613281 C 171.6875 10.882812 171.734375 11.152344 171.734375 11.527344 C 171.734375 11.851562 171.6875 12.121094 171.542969 12.390625 Z M 171.832031 8.890625 C 171.398438 8.671875 170.867188 8.511719 170.289062 8.511719 L 167.734375 8.511719 L 167.734375 14.492188 L 170.289062 14.492188 C 170.867188 14.492188 171.398438 14.382812 171.832031 14.113281 C 172.265625 13.898438 172.652344 13.578125 172.890625 13.089844 C 173.132812 12.660156 173.277344 12.121094 173.277344 11.527344 C 173.277344 10.882812 173.132812 10.398438 172.890625 9.914062 C 172.652344 9.480469 172.265625 9.160156 171.832031 8.890625 Z M 171.832031 8.890625 "/>
<path style=" stroke:none;fill-rule:nonzero;fill:rgb(25.490196%,27.058824%,29.411765%);fill-opacity:1;" d="M 178.003906 12.230469 C 177.90625 12.445312 177.8125 12.605469 177.714844 12.769531 C 177.570312 12.929688 177.425781 13.039062 177.230469 13.089844 C 177.085938 13.199219 176.894531 13.253906 176.652344 13.253906 C 176.460938 13.253906 176.269531 13.199219 176.121094 13.089844 C 175.929688 13.039062 175.785156 12.929688 175.640625 12.769531 C 175.496094 12.605469 175.398438 12.445312 175.351562 12.230469 C 175.253906 12.015625 175.207031 11.796875 175.207031 11.527344 C 175.207031 11.257812 175.253906 11.042969 175.351562 10.828125 C 175.398438 10.613281 175.496094 10.453125 175.640625 10.289062 C 175.785156 10.128906 175.929688 10.019531 176.121094 9.914062 C 176.269531 9.859375 176.460938 9.804688 176.652344 9.804688 C 176.894531 9.804688 177.085938 9.859375 177.230469 9.914062 C 177.425781 10.019531 177.570312 10.128906 177.714844 10.289062 C 177.8125 10.453125 177.90625 10.613281 178.003906 10.828125 C 178.101562 11.042969 178.101562 11.257812 178.101562 11.527344 C 178.101562 11.796875 178.101562 12.015625 178.003906 12.230469 Z M 176.941406 8.40625 L 176.414062 8.40625 C 176.074219 8.457031 175.785156 8.511719 175.496094 8.621094 C 175.109375 8.78125 174.820312 8.996094 174.53125 9.320312 C 174.289062 9.589844 174.097656 9.914062 173.90625 10.289062 C 173.761719 10.667969 173.710938 11.042969 173.710938 11.527344 C 173.710938 11.960938 173.761719 12.390625 173.90625 12.769531 C 174.097656 13.144531 174.289062 13.46875 174.53125 13.738281 C 174.820312 14.007812 175.109375 14.222656 175.496094 14.382812 C 175.832031 14.546875 176.269531 14.652344 176.652344 14.652344 C 177.085938 14.652344 177.472656 14.546875 177.859375 14.382812 C 178.195312 14.222656 178.535156 14.007812 178.773438 13.738281 C 179.0625 13.46875 179.257812 13.144531 179.402344 12.769531 C 179.546875 12.390625 179.644531 11.960938 179.644531 11.527344 C 179.644531 11.042969 179.546875 10.667969 179.402344 10.289062 C 179.257812 9.914062 179.0625 9.589844 178.773438 9.320312 C 178.535156 8.996094 178.195312 8.78125 177.859375 8.621094 C 177.570312 8.511719 177.230469 8.457031 176.941406 8.40625 Z M 176.941406 8.40625 "/>
</g>
</svg>
