<svg viewBox="0 0 114 84" xmlns="http://www.w3.org/2000/svg">
<path d="M3.81398 50.8516C-0.598964 55.8753 4.32371 61.6178 5.14184 62.5067C5.21756 62.589 5.28959 62.6717 5.35954 62.7591C9.89104 68.417 14.9782 66.2642 16.1683 66.0233C17.1279 65.8291 20.4863 62.9485 22.0456 61.5325C26.0757 57.3573 31.4812 59.7928 33.6802 61.5325L50.5925 79.1317C54.8145 82.6272 59.1085 83.137 63.4265 79.4958C67.5182 76.0454 76.4563 66.1652 77.3822 65.1388C77.4379 65.077 77.4861 65.0177 77.5367 64.9514C82.5241 58.4151 88.5621 57.5769 95.0724 64.8944C95.1642 64.9976 95.2672 65.1004 95.3735 65.1881C101.561 70.2875 107.987 64.2515 110.445 60.5615C113.995 56.4834 110.645 51.1753 108.526 49.031L92.0934 32.2815C87.3915 28.1063 82.4578 30.5418 80.5787 32.2815L63.4265 49.031C58.053 53.9831 52.6315 51.0944 50.5925 49.031L33.6802 31.9174C28.5946 27.9363 23.8048 30.5823 22.0456 32.4029L3.81398 50.8516Z" />
<path d="M45.2667 20.4386C42.6435 17.7842 42.6435 13.4807 45.2667 10.8263L51.7407 4.27516C54.7386 1.24161 59.599 1.24161 62.5969 4.27517L69.0709 10.8263C71.694 13.4807 71.694 17.7842 69.0709 20.4386L62.5969 26.9898C59.599 30.0233 54.7386 30.0233 51.7407 26.9898L45.2667 20.4386Z" />
<path d="M3.81398 50.8516C-0.598964 55.8753 4.32371 61.6178 5.14184 62.5067C5.21756 62.589 5.28959 62.6717 5.35954 62.7591C9.89104 68.417 14.9782 66.2642 16.1683 66.0233C17.1279 65.8291 20.4863 62.9485 22.0456 61.5325C26.0757 57.3573 31.4812 59.7928 33.6802 61.5325L50.5925 79.1317C54.8145 82.6272 59.1085 83.137 63.4265 79.4958C67.5182 76.0454 76.4563 66.1652 77.3822 65.1388C77.4379 65.077 77.4861 65.0177 77.5367 64.9514C82.5241 58.4151 88.5621 57.5769 95.0724 64.8944C95.1642 64.9976 95.2672 65.1004 95.3735 65.1881C101.561 70.2875 107.987 64.2515 110.445 60.5615C113.995 56.4834 110.645 51.1753 108.526 49.031L92.0934 32.2815C87.3915 28.1063 82.4578 30.5418 80.5787 32.2815L63.4265 49.031C58.053 53.9831 52.6315 51.0944 50.5925 49.031L33.6802 31.9174C28.5946 27.9363 23.8048 30.5823 22.0456 32.4029L3.81398 50.8516Z" stroke-width="4" stroke-miterlimit="16"/>
<path d="M45.2667 20.4386C42.6435 17.7842 42.6435 13.4807 45.2667 10.8263L51.7407 4.27516C54.7386 1.24161 59.599 1.24161 62.5969 4.27517L69.0709 10.8263C71.694 13.4807 71.694 17.7842 69.0709 20.4386L62.5969 26.9898C59.599 30.0233 54.7386 30.0233 51.7407 26.9898L45.2667 20.4386Z" stroke-width="4" stroke-miterlimit="16"/>
    <defs>
        <style>
            path {
                fill: #cef207;
                stroke: #cef207;
            }
        </style>
    </defs>
</svg>
